# xmcd CD database file
# Copyright (C) 1995-1998 Ti Kan
#
# Track frame offsets:
#	150
#	13867
#	27752
#	42082
#	55244
#	69244
#	81859
#	94042
#	107014
#	121032
#	133277
#	146772
#	159742
#	173332
#	183849
#	198189
#	212867
#	227917
#
# Disc length: 3224 seconds
#
# Revision: 3
# Processed by: cddbd v1.5.1PL0 Copyright (c) Steve Scherf et al.
# Submitted via: CDex 1.30Release
#
DISCID=ee0c9612
DTITLE=Billie Holiday - The Essential Billie Holiday - disk 1
DYEAR=1900
DGENRE=Blues
TTITLE0=You Showed Me The Way
TTITLE1=Sun Showers
TTITLE2=Mean To Me
TTITLE3=Without Your Love
TTITLE4=I'll Never Be The Same
TTITLE5=I Can't Believe That You're In Love With Me
TTITLE6=She's Funny That Way
TTITLE7=Them There Eyes
TTITLE8=They Say
TTITLE9=What Is This Going To Get Us
TTITLE10=Swing, Brother, Swing
TTITLE11=Falling In Love Again
TTITLE12=You're Just A No Account
TTITLE13=Romance In The Dark
TTITLE14=Carelessly
TTITLE15=Gloomy Sunday
TTITLE16=These Foolish Things
TTITLE17=My Man
EXTD=ID3G:   0
EXTT0=
EXTT1=
EXTT2=
EXTT3=
EXTT4=
EXTT5=
EXTT6=
EXTT7=
EXTT8=
EXTT9=
EXTT10=
EXTT11=
EXTT12=
EXTT13=
EXTT14=
EXTT15=
EXTT16=
EXTT17=
PLAYORDER=
